<?xml version="1.0" standalone="no"?>
<!DOCTYPE svg PUBLIC "-//W3C//DTD SVG 1.1//EN"
"http://www.w3.org/Graphics/SVG/1.1/DTD/svg11.dtd">

<svg width="514" height="372" view_box="0 0 514 372"
xmlns="http://www.w3.org/2000/svg"
xmlns:link="http://www.w3.org/1999/xlink">\n\n<desc>Généré par Mocodo 2.3.7 le Mon, 21 Sep 2020 11:19:31</desc>

<rect id="frame" x="0" y="0" width="514" height="372" fill="#f7f7f7" stroke="none" stroke-width="0"/>

<!-- Association is linked to -->
<line x1="247" y1="85" x2="247" y2="211" stroke="#5aae61" stroke-width="2"/>
<text x="252.0" y="178" fill="#762a83" font-family="Verdana" font-size="12">1,N</text>
<line x1="247" y1="312" x2="247" y2="211" stroke="#5aae61" stroke-width="2"/>
<text x="252.0" y="253" fill="#762a83" font-family="Verdana" font-size="12">0,N</text>
<g id="association-is linked to">
	<path d="M 274 186 a 14 14 90 0 1 14 14 V 211 h -82 V 200 a 14 14 90 0 1 14 -14" fill="#a6dba0" stroke="#a6dba0" stroke-width="0"/>
	<path d="M 288 211.0 v 11 a 14 14 90 0 1 -14 14 H 220 a 14 14 90 0 1 -14 -14 V 211.0 H 82" fill="#d9f0d3" stroke="#d9f0d3" stroke-width="0"/>
	<rect x="206" y="186" width="82" height="50" fill="none" rx="14" stroke="#5aae61" stroke-width="2"/>
	<line x1="206" y1="211" x2="288" y2="211" stroke="#5aae61" stroke-width="1"/>
	<text x="213" y="203.7" fill="#000000" font-family="Verdana" font-size="12">is linked to</text>
</g>

<!-- Association belongs to -->
<line x1="471" y1="85" x2="366" y2="85" stroke="#5aae61" stroke-width="2"/>
<text x="410" y="102.0" fill="#762a83" font-family="Verdana" font-size="12">0,N</text>
<line x1="247" y1="85" x2="366" y2="85" stroke="#5aae61" stroke-width="2"/>
<text x="300" y="102.0" fill="#762a83" font-family="Verdana" font-size="12">1,1</text>
<g id="association-belongs to">
	<path d="M 391 60 a 14 14 90 0 1 14 14 V 85 h -78 V 74 a 14 14 90 0 1 14 -14" fill="#a6dba0" stroke="#a6dba0" stroke-width="0"/>
	<path d="M 405 85.0 v 11 a 14 14 90 0 1 -14 14 H 341 a 14 14 90 0 1 -14 -14 V 85.0 H 78" fill="#d9f0d3" stroke="#d9f0d3" stroke-width="0"/>
	<rect x="327" y="60" width="78" height="50" fill="none" rx="14" stroke="#5aae61" stroke-width="2"/>
	<line x1="327" y1="85" x2="405" y2="85" stroke="#5aae61" stroke-width="1"/>
	<text x="334" y="77.7" fill="#000000" font-family="Verdana" font-size="12">belongs to</text>
</g>

<!-- Association have -->
<line x1="50" y1="85" x2="145" y2="85" stroke="#5aae61" stroke-width="2"/>
<text x="96" y="102.0" fill="#762a83" font-family="Verdana" font-size="12">1,1</text>
<line x1="247" y1="85" x2="145" y2="85" stroke="#5aae61" stroke-width="2"/>
<text x="172" y="102.0" fill="#762a83" font-family="Verdana" font-size="12">0,N</text>
<g id="association-have">
	<path d="M 153 60 a 14 14 90 0 1 14 14 V 85 h -44 V 74 a 14 14 90 0 1 14 -14" fill="#a6dba0" stroke="#a6dba0" stroke-width="0"/>
	<path d="M 167 85.0 v 11 a 14 14 90 0 1 -14 14 H 137 a 14 14 90 0 1 -14 -14 V 85.0 H 44" fill="#d9f0d3" stroke="#d9f0d3" stroke-width="0"/>
	<rect x="123" y="60" width="44" height="50" fill="none" rx="14" stroke="#5aae61" stroke-width="2"/>
	<line x1="123" y1="85" x2="167" y2="85" stroke="#5aae61" stroke-width="1"/>
	<text x="130" y="77.7" fill="#000000" font-family="Verdana" font-size="12">have</text>
</g>

<!-- Entity CATEGORY -->
<g id="entity-CATEGORY">
	<g id="frame-CATEGORY">
		<rect x="208" y="261" width="78" height="25" fill="#c2a5cf" stroke="#c2a5cf" stroke-width="0"/>
		<rect x="208" y="286.0" width="78" height="77" fill="#e7d4e8" stroke="#e7d4e8" stroke-width="0"/>
		<rect x="208" y="261" width="78" height="102" fill="none" stroke="#9970ab" stroke-width="2"/>
		<line x1="208" y1="286" x2="286" y2="286" stroke="#9970ab" stroke-width="1"/>
	</g>
	<text x="213" y="278.7" fill="#000000" font-family="Verdana" font-size="12">CATEGORY</text>
	<text x="213" y="303.7" fill="#000000" font-family="Verdana" font-size="12">id</text>
	<line x1="213" y1="306" x2="225" y2="306" stroke="#000000" stroke-width="1"/>
	<text x="213" y="320.8" fill="#000000" font-family="Verdana" font-size="12">title</text>
	<text x="213" y="337.8" fill="#000000" font-family="Verdana" font-size="12">description</text>
	<text x="213" y="354.8" fill="#000000" font-family="Verdana" font-size="12">slug</text>
</g>

<!-- Entity APOLOGY -->
<g id="entity-APOLOGY">
	<g id="frame-APOLOGY">
		<rect x="199" y="9" width="96" height="25" fill="#c2a5cf" stroke="#c2a5cf" stroke-width="0"/>
		<rect x="199" y="34.0" width="96" height="127" fill="#e7d4e8" stroke="#e7d4e8" stroke-width="0"/>
		<rect x="199" y="9" width="96" height="152" fill="none" stroke="#9970ab" stroke-width="2"/>
		<line x1="199" y1="34" x2="295" y2="34" stroke="#9970ab" stroke-width="1"/>
	</g>
	<text x="217" y="26.7" fill="#000000" font-family="Verdana" font-size="12">APOLOGY</text>
	<text x="204" y="51.7" fill="#000000" font-family="Verdana" font-size="12">id</text>
	<line x1="204" y1="54" x2="216" y2="54" stroke="#000000" stroke-width="1"/>
	<text x="204" y="68.7" fill="#000000" font-family="Verdana" font-size="12">author</text>
	<text x="204" y="85.8" fill="#000000" font-family="Verdana" font-size="12">content</text>
	<text x="204" y="102.8" fill="#000000" font-family="Verdana" font-size="12">slug</text>
	<text x="204" y="119.8" fill="#000000" font-family="Verdana" font-size="12">likes</text>
	<text x="204" y="136.8" fill="#000000" font-family="Verdana" font-size="12">commentaries</text>
</g>

<!-- Entity COMMENTS -->
<g id="entity-COMMENTS">
	<g id="frame-COMMENTS">
		<rect x="9" y="43" width="82" height="25" fill="#c2a5cf" stroke="#c2a5cf" stroke-width="0"/>
		<rect x="9" y="68.0" width="82" height="59" fill="#e7d4e8" stroke="#e7d4e8" stroke-width="0"/>
		<rect x="9" y="43" width="82" height="84" fill="none" stroke="#9970ab" stroke-width="2"/>
		<line x1="9" y1="68" x2="91" y2="68" stroke="#9970ab" stroke-width="1"/>
	</g>
	<text x="14" y="60.7" fill="#000000" font-family="Verdana" font-size="12">COMMENTS</text>
	<text x="14" y="85.8" fill="#000000" font-family="Verdana" font-size="12">id</text>
	<line x1="14" y1="88" x2="26" y2="88" stroke="#000000" stroke-width="1"/>
	<text x="14" y="102.8" fill="#000000" font-family="Verdana" font-size="12">author</text>
	<text x="14" y="119.8" fill="#000000" font-family="Verdana" font-size="12">content</text>
</g>

<!-- Entity USERS -->
<g id="entity-USERS">
	<g id="frame-USERS">
		<rect x="437" y="17" width="68" height="25" fill="#c2a5cf" stroke="#c2a5cf" stroke-width="0"/>
		<rect x="437" y="42.0" width="68" height="111" fill="#e7d4e8" stroke="#e7d4e8" stroke-width="0"/>
		<rect x="437" y="17" width="68" height="136" fill="none" stroke="#9970ab" stroke-width="2"/>
		<line x1="437" y1="42" x2="505" y2="42" stroke="#9970ab" stroke-width="1"/>
	</g>
	<text x="450" y="34.7" fill="#000000" font-family="Verdana" font-size="12">USERS</text>
	<text x="442" y="59.7" fill="#000000" font-family="Verdana" font-size="12">id</text>
	<line x1="442" y1="62" x2="454" y2="62" stroke="#000000" stroke-width="1"/>
	<text x="442" y="76.7" fill="#000000" font-family="Verdana" font-size="12">firstname</text>
	<text x="442" y="93.8" fill="#000000" font-family="Verdana" font-size="12">lastname</text>
	<text x="442" y="110.8" fill="#000000" font-family="Verdana" font-size="12">role</text>
	<text x="442" y="127.8" fill="#000000" font-family="Verdana" font-size="12">email</text>
	<text x="442" y="144.8" fill="#000000" font-family="Verdana" font-size="12">password</text>
</g>
</svg>